<?xml version="1.0" encoding="utf-8"?>
<!-- Generator: Adobe Illustrator 25.2.1, SVG Export Plug-In . SVG Version: 6.00 Build 0)  -->
<svg version="1.1" id="Layer_1" xmlns="http://www.w3.org/2000/svg" xmlns:xlink="http://www.w3.org/1999/xlink" x="0px" y="0px"
	 viewBox="0 0 2500 795" style="enable-background:new 0 0 2500 795;" xml:space="preserve">
<style type="text/css">
	.st0{opacity:0.3;fill-rule:evenodd;clip-rule:evenodd;fill:#FFFFFF;}
	.st1{opacity:0.4;fill-rule:evenodd;clip-rule:evenodd;fill:#FFFFFF;}
	.st2{opacity:0.5;fill-rule:evenodd;clip-rule:evenodd;fill:#FFFFFF;}
	.st3{opacity:0.6;fill-rule:evenodd;clip-rule:evenodd;fill:#FFFFFF;}
	.st4{opacity:0.7;fill-rule:evenodd;clip-rule:evenodd;fill:#FFFFFF;}
	.st5{opacity:0.8;fill-rule:evenodd;clip-rule:evenodd;fill:#FFFFFF;}
	.st6{opacity:0.9;fill-rule:evenodd;clip-rule:evenodd;fill:#FFFFFF;}
	.st7{fill-rule:evenodd;clip-rule:evenodd;fill:#FFFFFF;}
</style>
<path class="st0" d="M570.5,38.3C518.8,13.7,461.1,0,400.1,0C293.7,0,197,41.8,125.7,109.9C49.8,182.3,704.8,102.1,570.5,38.3
	L570.5,38.3z"/>
<path class="st1" d="M710.6,149.3c0.5,0.6-32.4,44.5-131.2,57C380,231.5,37.6,234.2,38.1,233c21.1-46.3,50.8-88.1,87.6-123.1
	c43,13.4,89.9,16.8,134.2,8.6c73.2-13.4,138.2-55.7,210.6-72.9c32.1-7.7,67.1-10,100.1-7.4C625.3,64.3,673.1,102.5,710.6,149.3
	L710.6,149.3z"/>
<path class="st2" d="M792.7,335.2c0.3,1.6-449.7,43.9-668.9,31.6c-71.4-4-113.6-47.2-113.1-49.6c5.9-29,15.1-57.3,27.4-84.2
	c63.3-34.7,137.9-54.7,210.1-53.9c90.6,0.9,179.5,31.1,270.1,28.9c67.3-1.7,135.1-23.2,192.3-58.7
	C752.7,202,781.8,265.6,792.7,335.2L792.7,335.2z"/>
<path class="st3" d="M797.6,397.5c0,2.2-0.1,6.6-0.1,6.6s-125,31.5-285.9,29.6c-225.4-2.6-509-39-509-39.7c0.2-25.9,2.9-51.7,8.1-77
	c54,33.3,119.5,49.7,182.6,42.8c50.1-5.4,97.8-24,144.2-43.7c46.4-19.7,92.6-40.9,141.7-52.3c72.1-16.7,149.2-10.9,218.1,16.3
	c33.5,13.2,66.8,32.2,95.4,55.2C795.9,355.8,797.6,376.6,797.6,397.5z"/>
<path class="st4" d="M346.8,526.6c-119.3,22-323.9-3.4-324.4-5C9.5,482.6,2.6,440.8,2.6,397.5c0-1.1,0-2.3,0-3.4
	c18.1-14.4,39.3-27.2,59.9-37.1c51.1-24.8,109-35.1,165.5-29.5c55.8,5.6,109.1,26.2,160.7,48.5c43.5,18.8,86.6,39,131.8,53
	C524.9,430.3,478,502.3,346.8,526.6L346.8,526.6z"/>
<path class="st5" d="M783.2,503.7c-8.3,14.1-87.5,61.4-194.9,69.6C446.2,584,278.3,541,334,519.1c87.7-34.4,163.8-96.3,254.4-122.2
	c67.7-19.4,142.7-16.3,209.2,7.1C797,437.8,792.2,471.2,783.2,503.7L783.2,503.7z"/>
<path class="st6" d="M744.8,595.6c-68.6,119.2-566.5,149-639.2,68.9c-37-40.8-65.7-89.3-83.3-142.9c61.1-34.9,132.7-49.8,201.5-40.4
	c89,12.2,168.8,61.9,256.6,81.2c70.9,15.6,146,10.7,214.3-13.9c30.9-11.2,61.5-26.3,88.5-44.9C774.3,535.8,761.4,566.7,744.8,595.6z
	"/>
<path class="st7" d="M745.3,594.6C676.8,714.3,547.9,795,400.1,795c-116.8,0-221.8-50.4-294.5-130.5c12.1,4.6,25.6,8.6,37.9,12.1
	c69.2,19.1,143.7,18.5,212.4-1.7c44-13,85.5-33.7,128.7-49.3C567.2,595.8,658,585.3,745.3,594.6z"/>
<path class="st7" d="M1876,124.7h99.3v467.1H1876V124.7z M983.1,591.5h98V398.8c0-31.8,7.8-71.3,40.2-71.3c14.8,0,27.7,3.9,39.6,14
	c0.4,0.4,35.7-82.1,35.3-81.7c-22-20.2-44.9-25-61.6-25c-36.3,0-66.5,22.1-78.7,55.1l-19.2-45.3h-53.6V591.5L983.1,591.5z
	 M2030.9,591.5h97.9V398.8c0-31.8,18.8-69.6,51.1-69.6c32.4,0,35.2,45.1,35.2,66.6c0.2,0.6,0.1,195.6,0.1,195.6h98V400.3
	c0-43.5,24.2-70.6,50.4-70.6c32,0,36.8,35.6,36.8,69.2l0.2,192.6h97.6V368.1c0-44.6-15.3-134-111.7-134c-45.8,0-72.4,15.2-93.9,53.7
	c-20.1-36.2-56.9-53.9-93.2-53.9c-36.3,0-75.5,19.2-95.8,58.9l-19.2-48.1h-53.6L2030.9,591.5L2030.9,591.5z M1297.3,374.6h115.3
	c-2.8-46.6-30.2-63-57-63C1328.9,311.5,1300.6,333.3,1297.3,374.6z M1387.7,514.6c42.8,0,75.8-20.2,75.8-20.2l27.7,77.3
	c-13.9,7.6-60,27-114.8,27c-126,0-176.6-83.9-176.6-184.2c0-94.8,56.7-181,157.7-181c99.2,0,166.8,82.8,149.1,215.7H1296
	C1300.6,496.4,1341.4,514.6,1387.7,514.6L1387.7,514.6z M1623.8,487.3c0,23.5,37.9,46,69.5,29c30.9-16.6,28.3-42.6,28.3-79.3
	C1663.2,437,1623.8,458.2,1623.8,487.3L1623.8,487.3z M1764.9,591.6l-20.7-40.5c-9.9,14.6-42.2,50.5-101.7,50.5
	c-65.8,0-115.6-46.9-115.6-101.8c0-55.7,38.6-129.3,195-129.3c0-37-31.9-50.7-65.5-50.7c-25.8,0-62.4,10.9-93.7,40.6l-29.8-84.3
	c20.6-12.8,68-45.7,138.6-45.7c105.3,0,148.3,63.9,148.3,166.9v194.2L1764.9,591.6L1764.9,591.6L1764.9,591.6z"/>
</svg>
