<svg id="Layer_1" data-name="Layer 1" xmlns="http://www.w3.org/2000/svg" viewBox="0 0 1280 466"><defs><style>.cls-1{fill:#fff;}</style></defs><path class="cls-1" d="M413,0c3.84,14.45,7.58,28.93,11.53,43.35C437,88.93,449.65,134.46,462,180.07a11.29,11.29,0,0,1-1.07,7.77q-11.7,20.35-24.07,40.32c-1.78,2.87-1.61,4.84.08,7.59Q449.35,256,461.3,276.49a9.32,9.32,0,0,1,1,6.42q-24.16,88.35-48.64,176.62c-.3,1.1-.73,2.17-1.26,3.7-11.85-3.09-23.56-6.13-35.26-9.19q-74.36-19.47-148.73-38.88a11,11,0,0,1-7.48-5.7c-7.57-13.32-15.48-26.44-23-39.76-1.72-3-3.7-4-7.1-3.95-15.66.26-31.33.15-47,.4A11.16,11.16,0,0,1,135,362.7Q69.12,298.47,3.06,234.44A37.81,37.81,0,0,0,0,232v-1c1.14-.93,2.35-1.79,3.4-2.81q66-64.05,131.9-128.18a10.07,10.07,0,0,1,7.86-3.18c16.16.21,32.32.12,48.47.34a5.8,5.8,0,0,0,5.86-3.38Q209.43,73,221.73,52.45a9.55,9.55,0,0,1,5.05-4.14Q300.37,29,374.05,10C386.4,6.81,398.68,3.35,411,0ZM385,370.37c.48-.59.77-.8.85-1.06q19.42-67.59,38.73-135.22a12.18,12.18,0,0,0-.34-6.29Q411,181,397.54,134.29c-4-13.82-7.94-27.64-12.12-42.18-1.07,1.41-1.71,2.11-2.19,2.92q-39.69,66.69-79.44,133.37c-1.59,2.66-1,4.39.34,6.69q39.27,65.79,78.43,131.65C383.28,368,384.15,369.08,385,370.37ZM95.9,254c1.28,1.49,1.77,2.14,2.33,2.7q49.86,49.41,99.79,98.76a13.48,13.48,0,0,0,6,3.1q58.28,14.73,116.61,29.24c7.67,1.92,15.38,3.73,24.28,5.87-1.49-2.67-2.32-4.24-3.22-5.75q-38.54-64.79-77-129.6c-2-3.34-4.07-4.42-7.86-4.41q-77.44.21-154.88.09Zm1.17-45.79a14,14,0,0,0,2,.24q79.47,0,159-.14c1.91,0,4.58-1.83,5.62-3.57q39.53-66,78.73-132.14c.6-1,1-2.14,1.72-3.67-1.3.23-1.95.31-2.57.46q-68,17-136,34.21a21.4,21.4,0,0,0-9.28,5.15q-33.48,32.6-66.57,65.61C118.65,185.43,108,196.87,97.07,208.24Z"/><path class="cls-1" d="M1280,143c-4,11.06-8.11,22.08-12,33.2q-27.54,79.69-55,159.44c-2.23,6.43-5,12.66-7.85,18.87-9,20.05-24.42,31.28-46.57,32.15-12.29.49-24.61.09-37.28.09V348.25c4.83,0,9.76-.15,14.69,0,25.47.9,33.62-14.42,28.26-35.64-4.31-17-10.52-33.62-16.64-50.13-14.41-38.84-29.28-77.5-43.95-116.24-.58-1.51-1.06-3.07-1.78-5.17,15.76,0,31-.06,46.29.13,1.07,0,2.66,1.76,3.1,3,13.54,38.77,29.73,76.64,40,116.53a8.38,8.38,0,0,0,2.4,4.14c.6-2.43,1.08-4.9,1.8-7.28q14-46.06,28.06-92.1c2.09-6.84,4.24-13.67,6.64-20.41.49-1.38,2.2-3.32,3.36-3.33,15.48-.1,31,.1,46.45.22Z"/><path class="cls-1" d="M556.62,141.29h45v6.06q0,52.74,0,105.5a63.35,63.35,0,0,0,.75,11.94c3.42,17.56,18.83,27.54,38,24.87,19.48-2.72,31.06-16.12,32.36-38.22.62-10.46.44-21,.46-31.47.06-24.33,0-48.67,0-73v-5.62H718V326.26H675v-20.9l-1.08-.54c-1.2,1.42-2.47,2.77-3.56,4.27-24,32.93-81.59,27.22-100.75.3-9.52-13.38-13.13-28.29-13.21-44.23-.18-40.33-.07-80.67-.07-121C556.35,143.35,556.5,142.54,556.62,141.29Z"/><path class="cls-1" d="M786.82,325.81H742V141.47h43.78v25.45c1.83-2.21,2.76-3.21,3.56-4.31,17.15-23.27,44.28-32.18,72.26-23.71,25,7.57,42.64,30.53,43.32,58.68.76,31.47.33,63,.39,94.46,0,11.31,0,22.61,0,34.18H860.12v-5.74q0-52.25,0-104.47c0-21.75-10.7-35.06-29.7-37-21.41-2.19-37.94,9.42-42.25,30.07A74,74,0,0,0,786.88,224c-.11,31.82-.06,63.65-.06,95.47Z"/><path class="cls-1" d="M1014.15,173.49h-25V141.26h24.94V84h45.19v57.47H1088v32.28h-28.37c-.1,2.19-.26,3.94-.26,5.69q0,45,0,90a50.11,50.11,0,0,0,.4,6.48c1.2,8.93,6.2,13.56,15.31,14,4.46.21,8.94,0,13.76,0v36.42c-5,0-10.11.13-15.19,0-7.8-.26-15.72,0-23.38-1.26-23.42-3.89-35.9-18.68-36-42.41-.18-34.16-.05-68.31-.05-102.47C1014.14,178.17,1014.15,176.19,1014.15,173.49Z"/><path class="cls-1" d="M974.56,325.81H930.13V141.33h44.43Z"/><path class="cls-1" d="M974.64,120.37h-44.5V84h44.5Z"/></svg>