<svg id="Layer_1" data-name="Layer 1" xmlns="http://www.w3.org/2000/svg" viewBox="0 0 878.21 225.73"><defs><style>.cls-1{fill:#fff;}</style></defs><path class="cls-1" d="M260.77.12c-.55.83-.19,1.76-.2,2.62q0,109.85,0,219.67a3.55,3.55,0,0,1-.43,2.62l-8.23-19.64Q209.43,104,167,2.69a5.84,5.84,0,0,1-.78-2.57Z"/><path class="cls-1" d="M99.19,1.08C96,8.88,92.8,16.69,89.54,24.46Q47.8,124.06,6,223.63c-.24.59-.25,1.35-1,1.68V.57Q50.7.57,96.37.6C97.31.6,98.38.19,99.19,1.08Z"/><path class="cls-1" d="M99.19,1.08C98.38.19,97.31.6,96.37.6Q50.71.55,5,.57C5.55-.38,6.43.15,7.11.15Q53.36.09,99.62.12Z"/><path class="cls-1" d="M711.25,84.3c10.13-2.43,20-2.9,29.81-.43a43.57,43.57,0,0,1,33.08,39c1.2,14.51-1.6,27.93-10.92,39.47-9,11.15-21.11,17.1-35,19.43s-27.85.86-41.51-2.86c-2.27-.62-2.71-1.93-2.7-4q.07-34.66,0-69.32c0-19.9,0-39.81,0-59.71,0-2.13.48-2.92,2.78-2.87,7,.15,14.07.05,21.11.05,3.4,0,3.4,0,3.4,3.3V84.3Zm0,48.75c0,8.08.06,16.16,0,24.23,0,1.89.62,2.44,2.4,2.65a36.35,36.35,0,0,0,9.83-.09c9.08-1.44,16.18-5.8,20.21-14.29,3.35-7.07,3.72-14.56,2.19-22.11-1.56-7.73-5.72-13.56-13.35-16.42-6.61-2.48-13.32-2-20.06-.47-1.3.31-1.18,1.12-1.17,2Z"/><path class="cls-1" d="M556.53,107.25q0,25.17,0,50.34a122.31,122.31,0,0,0,.77,14.82c.15,1.21.12,2.14-1.33,2.73-17.14,7-34.81,9.88-53.13,6.16-20.34-4.13-33.72-19.23-36-39.78-1.54-13.93.76-26.89,9.32-38.3C484.54,92,496.06,86,509.62,83.43a60.17,60.17,0,0,1,17.56-.9c1.9.2,2.23-.43,2.22-2.17-.08-11.52,0-23-.09-34.55,0-2.26.71-2.83,2.88-2.79,7.27.12,14.54.15,21.8,0,2.24,0,2.58.73,2.58,2.71C556.5,66.22,556.53,86.74,556.53,107.25Zm-27.17,24.9c0-8.15,0-16.31,0-24.47,0-1.53-.49-2.1-2-2.36a28.15,28.15,0,0,0-6.85-.36c-7.92.46-15,3-20.22,9.22-5.49,6.51-6.58,14.25-5.78,22.36.71,7.18,3.1,13.72,9.21,18.19,7.15,5.22,15.27,5.58,23.66,4.28,1.49-.23,1.95-.88,1.94-2.39C529.32,148.47,529.36,140.31,529.36,132.15Z"/><path class="cls-1" d="M402.11,53.43c4.74,0,9.49,0,14.23,0a2.79,2.79,0,0,1,3.18,2.13q21.75,61.38,43.6,122.71c.87,2.43.71,2.67-1.79,2.67-7.88,0-15.76-.06-23.63.05a3,3,0,0,1-3.28-2.43c-2.9-8.57-5.9-17.11-8.74-25.7-.54-1.63-1.18-2.26-3-2.25q-20.31.13-40.62,0c-1.61,0-2.35.4-2.86,2-2.67,8.57-5.54,17.08-8.24,25.64-.63,2-1.66,2.74-3.79,2.7-6.73-.13-13.46-.05-20.19-.05-3.06,0-3.41-.45-2.41-3.34q10.95-31.57,21.91-63.14,8.39-24.12,16.82-48.24A34.77,34.77,0,0,0,385,56.08c.09-2,.83-2.76,2.92-2.7C392.63,53.52,397.37,53.43,402.11,53.43Zm.3,23.4c-.35.34-.51.43-.54.55-4.06,15.78-9.22,31.22-14.24,46.71-.57,1.75-.26,2.17,1.59,2.15q13.08-.12,26.17,0c1.85,0,2.16-.38,1.6-2.18C412.1,108.38,406.89,92.81,402.41,76.83Z"/><path class="cls-1" d="M668.27,131c0,11.69-2.13,21.67-7.81,30.61-8.84,13.9-21.89,20.51-38.17,21.16-8.83.35-17.37-1-25.32-5-10.86-5.5-18-14.28-21.72-25.68-5.31-16.16-4.65-32,4-47,8.1-14,20.74-21.29,36.82-22.64,9.94-.84,19.54.53,28.38,5.37,12.72,7,19.63,18.1,22.64,31.92A51.14,51.14,0,0,1,668.27,131ZM640.49,133c0-6-.79-11.52-3.23-16.73-3.27-6.94-8.71-10.87-16.44-11.29-7.94-.43-13.58,3.31-17.34,10.11a31.77,31.77,0,0,0-3.65,13.09c-.63,8.12.13,16,4.55,23.12,3.88,6.24,9.71,9.18,17,8.91s12.15-4.06,15.41-10.25C639.61,144.54,640.44,138.7,640.49,133Z"/><path class="cls-1" d="M841.24,139.72c-8.88,0-17.75.05-26.62,0-1.82,0-2.14.42-1.78,2.16,1.88,9.18,8.1,15.23,18,17a59.23,59.23,0,0,0,32.18-3.06c2.45-.93,2.45-.94,2.46,1.74,0,5.64-.06,11.29,0,16.93a2.94,2.94,0,0,1-2,3.12,57.87,57.87,0,0,1-19.67,4.88c-8.56.62-17.11.7-25.52-1.48-14.86-3.84-25.24-12.8-30.19-27.29-5.88-17.22-4.83-34.18,4.6-50s24.23-22.3,42.4-21.39c13.63.69,24.52,6.38,31.72,18.24a45.21,45.21,0,0,1,6.36,22.83,90.79,90.79,0,0,1-.67,12.54c-.26,2.32-1.46,3.12-3.59,3.19-4.58.16-9.15.43-13.74.52S845.9,139.72,841.24,139.72Zm-11.39-19v-.15c5.19,0,10.38-.08,15.57,0,2,0,2.32-.83,2.1-2.45a16,16,0,0,0-6.65-11.5c-10.56-7.4-26.38-.36-28.23,12.5-.22,1.53.48,1.58,1.63,1.57C819.46,120.69,824.66,120.71,829.85,120.71Z"/><path class="cls-1" d="M193.07,225.69H168.61c-4.36,0-8.72-.07-13.08,0a2.45,2.45,0,0,1-2.79-1.88c-5.41-13.81-11-27.57-16.36-41.38a2.81,2.81,0,0,0-3.13-2.13c-13.15.08-26.31,0-39.46.07-1.64,0-2.4,0-1.55-2q20-46.68,39.83-93.39a2.42,2.42,0,0,1,.91-1.43Z"/></svg>