<svg id="Layer_1" data-name="Layer 1" xmlns="http://www.w3.org/2000/svg" viewBox="0 0 286.21 311.25"><defs><style>.cls-1{fill:#fff;}</style></defs><path class="cls-1" d="M285.77,110c-.62-12.24-4.93-23.4-11.23-33.78a10.21,10.21,0,0,1-1.3-8.84c3.85-13.9,6-28,3.21-42.45a36.48,36.48,0,0,0-1.78-6.22C270.25,7.1,265.62,4.16,253.45,5c-15,1.09-28.31,6.81-40.62,15.3a8.52,8.52,0,0,1-6.61,1c-30.61-10.34-61.17-10.17-91.69.08-3.26,1.09-5.44.64-8.15-1.35A79.13,79.13,0,0,0,60.28,4.56,10.14,10.14,0,0,0,52,8c-7.15,7.55-9.61,17-9.14,26.72.52,11.07,2.74,22.06,4.05,33.1.26,2.16.48,4.86-.54,6.54-10.42,17.1-15,35.42-12.72,55.41,1.69,14.94,8.86,29.71,9.5,30.87,14.72,26.74,39,39.52,67.3,46.58,2.42.61,4.86,1.11,7.29,1.69a3.19,3.19,0,0,1,.83.54c-3.64,7.9-10.17,11.37-18.49,11.69-7.82.31-15.65.25-23.48.36a21.42,21.42,0,0,1-16.44-7.2c-3.07-3.27-5.55-7.19-8.93-10.08C44.42,198.45,37.63,192.44,30,188c-3.82-2.22-9.61-2-14.35-1.45-4.36.49-7,4.3-8,8.67a9.71,9.71,0,0,0,4,10.58c7.49,5.19,11.6,12.64,14.92,20.77,2.32,5.7,4.69,11.39,7.25,17,6.36,13.84,17.74,20.93,32.4,22.65,8.06.95,16.29.56,24.45.76,2,0,3.94,0,6.22,0v38.68a185.72,185.72,0,0,0,18.36,5.63c.13-8.43.32-50,2.42-62,1.85-10.58,7.44-19.9,15.14-27.67,6-6.08,13.22-9.19,22.47-7.9a42.07,42.07,0,0,0,12.17.09c8.58-1.32,15.46,1.15,20.94,6.89a60.2,60.2,0,0,1,16.93,40.07c.71,16.83.2,33.7.29,50.56a182.29,182.29,0,0,0,18.06-5.53c0-.28,0-.55,0-.83,0-13.5,0-27,0-40.51-.06-19.73-6.47-37.2-18.76-52.58-.69-.87-1.3-1.81-1.37-1.91,12.25-4.79,24.72-8.87,36.48-14.46,15.26-7.24,26.29-19.19,35.33-33.59,0,0,6.38-10.73,8.93-21.34C287.05,128.86,286.14,117.27,285.77,110ZM101,241c-2.09,7.86-2.1,7.86-10.43,7.86-5.16,0-10.31.08-15.46,0-17.21-.35-24-5.83-28.07-23.19,14.78,17.44,34.7,14.29,54,13.67A8.26,8.26,0,0,1,101,241Zm131.19-61.64c-18.56,10.1-38.82,13.55-59.57,14.83-4.32.27-8.66,0-13,0-21.47.3-42.61-1.92-62.66-10.13-24.21-9.92-41-26.41-45-53.39-2.86-19,1.43-36.43,12.81-51.92,2-2.76,2.19-5.07,1.33-8.19-3.25-11.9-6.13-23.88-4.82-36.4l.06-.49C62.65,24,63.69,23.22,73,25.24c11.75,2.54,22.46,7.33,31.36,15.56,2,1.88,3.63,2.08,6.15,1.06,33.18-13.39,66.36-13.92,99.56.11a5.83,5.83,0,0,0,5-1c10.15-9,22.17-13.85,35.28-16.55,4.06-.83,6,.36,7.37,4.3,3.4,10.17,2.08,20.43-1,30-3.46,10.87-2,19.17,3.88,29.32C278.92,119.74,265.25,161.32,232.17,179.33Z"/></svg>