<svg id="Layer_1" data-name="Layer 1" xmlns="http://www.w3.org/2000/svg" viewBox="0 0 2500 795"><defs><style>.cls-1,.cls-2,.cls-3,.cls-4,.cls-5,.cls-6,.cls-7,.cls-8{fill:#fff;fill-rule:evenodd;}.cls-1{opacity:0.3;}.cls-2{opacity:0.4;}.cls-3{opacity:0.5;}.cls-4{opacity:0.6;}.cls-5{opacity:0.7;}.cls-6{opacity:0.8;}.cls-7{opacity:0.9;}</style></defs><path class="cls-1" d="M570.5,38.29A397.85,397.85,0,0,0,125.67,109.9c-75.85,72.38,579.08-7.8,444.83-71.61Z"/><path class="cls-2" d="M710.61,149.34c.45.57-32.42,44.51-131.23,57C380,231.5,37.57,234.16,38.08,233A398.5,398.5,0,0,1,125.67,109.9c43,13.43,89.87,16.78,134.17,8.61C333,105.13,398.08,62.86,470.43,45.64c32.12-7.72,67.11-10,100.06-7.35A399,399,0,0,1,710.61,149.34Z"/><path class="cls-3" d="M792.72,335.23c.25,1.6-449.71,43.9-668.95,31.57-71.43-4-113.58-47.2-113.1-49.56A394.52,394.52,0,0,1,38.08,233c63.34-34.67,137.86-54.68,210.11-53.89,90.61.93,179.5,31.14,270.12,28.89,67.29-1.72,135.12-23.19,192.3-58.69a395.78,395.78,0,0,1,82.11,185.89Z"/><path class="cls-4" d="M797.57,397.5c0,2.2-.06,6.6-.06,6.6s-125,31.52-285.93,29.64c-225.44-2.64-509-39-509-39.67A399,399,0,0,1,10.71,317c54,33.33,119.52,49.66,182.57,42.78,50.13-5.43,97.75-24,144.18-43.72s92.6-40.94,141.67-52.34A371,371,0,0,1,697.26,280a375.7,375.7,0,0,1,95.45,55.15A401.29,401.29,0,0,1,797.57,397.5Z"/><path class="cls-5" d="M346.76,526.57c-119.25,22-323.92-3.38-324.44-5A397.57,397.57,0,0,1,2.57,397.5c0-1.14,0-2.29,0-3.43A325.41,325.41,0,0,1,62.48,357,311.27,311.27,0,0,1,228,327.42c55.82,5.56,109.13,26.23,160.72,48.49,43.46,18.76,86.64,39,131.76,53,4.42,1.38-42.4,73.4-173.68,97.65Z"/><path class="cls-6" d="M783.22,503.69c-8.32,14.06-87.52,61.44-194.88,69.55C446.19,584,278.26,541,334,519.15,421.67,484.7,497.73,422.82,588.34,397c67.69-19.39,142.72-16.32,209.17,7.11a396.87,396.87,0,0,1-14.29,99.59Z"/><path class="cls-7" d="M744.76,595.61c-68.64,119.17-566.45,149-639.18,68.89A397,397,0,0,1,22.33,521.61C83.46,486.67,155,471.83,223.81,481.24c89,12.19,168.79,61.88,256.62,81.22a388.26,388.26,0,0,0,214.29-13.91c30.86-11.23,61.46-26.27,88.51-44.87A395.66,395.66,0,0,1,744.76,595.61Z"/><path class="cls-8" d="M745.33,594.61C676.83,714.33,547.87,795,400.07,795A396.52,396.52,0,0,1,105.54,664.46c12.07,4.61,25.57,8.6,37.94,12.09a389.69,389.69,0,0,0,212.44-1.73c44.05-13,85.46-33.65,128.71-49.29C567.17,595.77,658,585.29,745.33,594.61Z"/><path class="cls-8" d="M1876,124.66h99.3V591.71H1876ZM983.08,591.46h98V398.83c0-31.82,7.84-71.27,40.19-71.27,14.84,0,27.69,3.94,39.61,14,.39.38,35.7-82.11,35.32-81.72-22-20.17-44.87-25-61.57-25-36.27,0-66.55,22.08-78.68,55.11l-19.25-45.32H983.08V591.46Zm1047.8,0h97.95V398.83c0-31.82,18.76-69.57,51.11-69.57s35.19,45.08,35.19,66.58c.17.62.11,195.62.11,195.62h98V400.27c0-43.52,24.16-70.6,50.41-70.6,32,0,36.84,35.6,36.84,69.16l.21,192.63h97.61V368.1c0-44.63-15.26-134-111.71-134-45.81,0-72.41,15.23-93.94,53.74-20.12-36.23-56.87-53.89-93.16-53.89a107.62,107.62,0,0,0-95.79,58.86l-19.25-48.08h-53.58V591.46ZM1297.29,374.6h115.29c-2.75-46.57-30.22-63.05-57-63.05S1300.55,333.31,1297.29,374.6Zm90.45,139.95c42.81,0,75.85-20.16,75.85-20.16l27.69,77.27c-13.93,7.62-60,27-114.76,27-126,0-176.64-83.9-176.64-184.25,0-94.79,56.69-181,157.69-181,99.22,0,166.83,82.8,149.12,215.67H1296c4.59,47.31,45.45,65.45,91.78,65.45Zm236.08-27.27c0,23.52,37.86,46,69.51,29,30.87-16.6,28.31-42.57,28.31-79.28-58.46,0-97.82,21.23-97.82,50.27Zm141.12,104.35-20.75-40.5c-9.91,14.65-42.2,50.53-101.67,50.53-65.81,0-115.65-46.91-115.65-101.76,0-55.7,38.56-129.27,195-129.27,0-37-31.86-50.71-65.53-50.71-25.77,0-62.42,10.92-93.69,40.6l-29.77-84.25c20.56-12.84,68-45.72,138.63-45.72,105.25,0,148.25,63.9,148.25,166.87V591.65h-54.82v0Z"/></svg>