<svg id="Layer_1" data-name="Layer 1" xmlns="http://www.w3.org/2000/svg" viewBox="0 0 1473.66 393.78"><defs><style>.cls-1{fill:#fff;}</style></defs><path class="cls-1" d="M323.82,99.55C313.67,95,304.63,91,295.58,87Q247,65.37,198.45,43.76c-2.73-1.21-5-1.59-8-.27q-73.6,32.85-147.32,65.42c-2.41,1.07-3.54,2.29-3.52,5.15q.2,33,0,66c0,3,1.13,4.38,3.74,5.53Q117,218.18,190.64,251c3,1.34,5.35.7,8-.48q78.2-34.82,156.41-69.56c3.66-1.63,7.29-3.35,11.46-3,8.17.69,14.17,6.2,15.67,14.38,1.3,7.12-2.64,14.51-10,17.82-22.46,10.11-45,20.07-67.5,30.07-35.14,15.62-70.31,31.16-105.4,46.89a11.45,11.45,0,0,1-10.34-.05q-84.12-37.54-168.42-74.73c-10.4-4.56-14.95-11.44-14.81-22.73.34-28.48.23-57,0-85.45C5.69,93.63,10,86.78,19.82,82.43Q104.6,45.13,189.13,7.25A10.83,10.83,0,0,1,199,7.12q85,38,170.19,75.66c7.42,3.29,12,8.67,12,16.8s-4.51,13.55-11.93,16.84q-85.54,37.92-171,76c-2.57,1.15-4.78,1.49-7.55.26-29.3-13.13-58.69-26-88-39.19C89.76,147.68,87.73,132,98.73,124c5.85-4.23,12-3.88,18.43-1q28.22,12.71,56.54,25.16c6.84,3,13.54,8.48,20.61,8.17,6.83-.3,13.5-5.13,20.18-8.09Q266,125.41,317.57,102.49C319.24,101.75,320.87,100.94,323.82,99.55Z"/><path class="cls-1" d="M825.43,170.15c0-7.27.19-13.22-.07-19.14-.17-3.71.64-5.32,4.84-5.18,9.32.33,18.66.23,28,0,3.35-.07,4.61.74,4.6,4.38q-.16,82.45,0,164.91c0,3.38-.74,4.66-4.37,4.56-9.49-.24-19-.29-28.49,0-4,.13-4.71-1.39-4.56-4.9.25-6.1.07-12.22.07-19.29-4.57,4.8-8.18,9.29-12.69,12.86-24.58,19.39-61.56,21.64-89.72,4.51-32.38-19.7-46-49.47-44.5-86.77,1.62-40.54,31.24-75.89,71-83,28.31-5.07,53.6,1.51,73.2,24.12C823.27,167.87,823.85,168.45,825.43,170.15Zm-54.69,7.42c-31-.17-54.89,23.22-54.84,55.09.05,32.54,22.59,55.29,54.27,55.56,30.19.26,54.89-20.6,55-55.23C825.3,198.63,800.46,178.05,770.74,177.57Z"/><path class="cls-1" d="M1404.13,249.17c-21.33,0-42.66.11-64-.08-4.65,0-5.24,1.27-3.87,5.45,6.51,19.89,23.72,33,46.7,34.81,19.63,1.54,37.07-3.21,50.07-19.1,1.94-2.37,3.23-1.31,5-.29,8,4.72,16,9.56,24.18,14,3.18,1.75,3.4,3.07,1.21,5.91-11.79,15.32-26.88,25.66-45.55,30.64-23.08,6.15-45.92,5.15-68.08-3.72-35.15-14.07-55.06-46-54.41-86.2.73-45.12,30.09-79.71,74.43-87.69,52.81-9.51,99.89,27.17,103.86,80.74a163.47,163.47,0,0,1-.17,20.41c-.21,4.16-1.91,5.2-5.87,5.17C1446.46,249.08,1425.29,249.17,1404.13,249.17Zm-19.35-30.78c15.31,0,30.62-.13,45.93.09,4.35.06,5.44-.95,4.22-5.33-7.11-25.46-27.38-39.39-54.06-36.88-23.15,2.18-39.7,16.06-45.48,37.79-1,3.72-.22,4.45,3.45,4.41C1354.15,218.29,1369.46,218.39,1384.78,218.39Z"/><path class="cls-1" d="M23.36,273.37c2.91-.41,5.79.93,8.69,2.22q79.08,35.15,158.13,70.34a8.68,8.68,0,0,0,7.92,0Q277.79,310.39,357.6,275c11.26-5,22.28.59,24.53,12.25,1.44,7.47-2.63,14.72-10.64,18.34-16.84,7.61-33.73,15.1-50.61,22.6Q259.26,355.59,197.67,383a7.7,7.7,0,0,1-7,0q-86.2-38.42-172.47-76.68c-9.57-4.26-13.8-11.49-11.8-19.93C8.37,278.14,14.46,273.35,23.36,273.37Z"/><path class="cls-1" d="M546.61,251.05c0,21.32-.09,42.63.09,63.94,0,3.68-.86,4.86-4.67,4.75-9.49-.29-19-.32-28.48,0-4.17.14-4.88-1.39-4.87-5.13.12-42.12,0-84.25.17-126.37,0-4.41-.9-6.17-5.65-5.79-5.8.45-11.66,0-17.48.14-2.39.06-3.17-.76-3.14-3.14q.15-15.22,0-30.47c0-2.5,1-3.12,3.27-3.08,6.17.08,12.34-.16,18.49.09,3.5.15,4.48-1,4.51-4.48C509,127,511.4,113,519.07,100.4,529.94,82.51,546.92,75,566.84,72.71c5.44-.62,11-.55,16.44-.67,2.9-.07,4.37,1,4.28,4.44-.27,9.49-.17,19,0,28.47,0,2.78-.69,3.78-3.67,3.61a53.35,53.35,0,0,0-14.41.84c-15.28,3.25-25.64,18.8-22.86,34.31.53,2.95,2.48,2.18,4.11,2.19,10.65.06,21.32.16,32,0,3.58-.06,5,.79,4.9,4.7-.27,9.31-.23,18.65,0,28,.08,3.41-1.14,4.15-4.31,4.1-10.65-.18-21.32.09-32-.15-3.68-.09-4.78.82-4.74,4.64C546.72,208.43,546.61,229.74,546.61,251.05Z"/><path class="cls-1" d="M1054.69,251c0-21.15-.13-42.3.1-63.45,0-4.3-1.27-5.35-5.32-5.11-5.81.34-11.66,0-17.49.13-2.51.06-3.53-.59-3.49-3.32q.21-15,0-30c0-2.63.87-3.48,3.45-3.43,6.16.14,12.33-.11,18.49.1,3.2.12,4.27-.83,4.35-4.15.27-11,1.52-21.9,5.75-32.23,9.63-23.55,28.32-34.28,52.58-36.93,5.44-.59,11-.53,16.44-.61,2.53,0,4.17.67,4.08,4-.28,9.66-.2,19.32,0,29,0,2.93-.92,3.65-3.75,3.46a50.45,50.45,0,0,0-16.37,1.27c-13.75,3.63-23.62,19.76-21,34,.55,2.95,2.56,2.1,4.16,2.11,10.83.08,21.66.18,32.48,0,3.51-.07,4.55,1,4.47,4.48-.23,9.32-.26,18.65,0,28,.1,3.66-1.19,4.39-4.55,4.33-10.65-.2-21.32.11-32-.17-3.83-.1-4.65,1.08-4.64,4.74.13,42.3,0,84.6.2,126.9,0,4.75-1.42,5.78-5.83,5.63-9.15-.32-18.32-.28-27.48,0-3.76.11-4.78-1-4.75-4.74C1054.78,293.67,1054.69,272.36,1054.69,251Z"/><path class="cls-1" d="M922.56,232.6c0-17.19-.15-31.35.1-45.5.07-3.87-1.13-4.75-4.77-4.62-7.82.27-15.66,0-23.49.14-2.77,0-3.8-.72-3.75-3.63.16-9.66.2-19.32,0-29-.07-3.49,1.38-4.19,4.44-4.12,7.32.14,14.67-.19,22,.13,4.21.19,5.83-.74,5.63-5.38-.41-9.48,0-19-.17-28.47,0-2.33.53-3.66,2.9-4.34,10.55-3,21.09-6.07,31.57-9.31,3.18-1,3.51.18,3.48,2.92-.1,13,.13,26-.14,39-.09,4.25.82,5.79,5.43,5.64,11-.37,22,0,33-.19,3.75-.08,4.87,1.09,4.77,4.83-.26,9.32-.21,18.65,0,28,.06,3.06-.84,4-3.94,4-11.49-.17-23,.09-34.48-.16-3.72-.07-4.76.92-4.73,4.69.17,25.48.08,51,.09,76.44,0,16.42,5.57,22.27,22,22.71,5.64.15,11.31-.15,16.95-.49,2.88-.18,4.18.37,4.1,3.69-.23,8.82-.17,17.66,0,26.48,0,2.7-.82,4-3.53,4.21-13.79,1.29-27.58,2.14-41.25-.89-20.7-4.59-32.43-17.64-35.11-38.85C921.45,263.53,923.19,246.52,922.56,232.6Z"/><path class="cls-1" d="M616.74,193.06c0-40.32.06-80.63-.09-120.94,0-4.15.64-5.86,5.36-5.64,9.31.44,18.66.32,28,0,3.76-.11,4.71,1,4.69,4.7-.17,27.48-.09,55-.09,82.45,0,53.48-.07,107,.12,160.42,0,4.72-1.38,5.81-5.82,5.65-9-.33-18-.3-27,0-4.14.13-5.29-1.07-5.27-5.25C616.81,274,616.74,233.54,616.74,193.06Z"/><path class="cls-1" d="M1233.66,192.55c0-40.31,0-80.62-.07-120.94,0-3.72.65-5.26,4.84-5.1,9.49.34,19,.29,28.49,0,3.78-.11,4.71,1,4.69,4.7-.16,28.82-.09,57.64-.09,86.46,0,52.14-.07,104.28.12,156.42,0,4.73-1.4,5.8-5.82,5.64-9-.33-18-.31-27,0-4.14.14-5.28-1.09-5.26-5.25C1233.73,273.84,1233.66,233.2,1233.66,192.55Z"/><path class="cls-1" d="M1164.53,233.06c0-27.48.07-55-.09-82.43,0-3.69.86-4.91,4.68-4.79,9,.28,18,.35,27,0,4.72-.19,6.21,1.07,6.18,6-.2,37.14-.11,74.27-.11,111.41,0,17.15-.13,34.3.1,51.45,0,4.06-1.24,5-5.07,4.9-9.16-.26-18.33-.29-27.48,0-4,.14-5.33-.81-5.3-5.11C1164.63,287.34,1164.53,260.2,1164.53,233.06Z"/><path class="cls-1" d="M1183.09,72.31a23.91,23.91,0,0,1,24.29,23.86c0,13.09-11.18,24.35-24.13,24.27a24.24,24.24,0,0,1-23.87-23.88C1159.3,82.86,1169.53,72.39,1183.09,72.31Z"/></svg>