<svg id="Layer_1" data-name="Layer 1" xmlns="http://www.w3.org/2000/svg" viewBox="0 0 297.67 97.31"><defs><style>.cls-1{fill:#fff;}.cls-2{fill:#fefefe;}</style></defs><path class="cls-1" d="M292.94,46.55c0-2.7.06-5.36,0-8-.05-1.73.19-2.82,2.37-2.7,1.73.1,2.31.76,2.29,2.4-.15,8.14.08,16.3-.46,24.4a10.79,10.79,0,0,1-10.93,10.15c-5.9.11-10.59-4-11.48-10.21a27.77,27.77,0,0,1-.29-4.46C274.64,47.16,281.21,43,292.94,46.55ZM279,58.39c0,7.06,2.67,10.35,8,9.67,4.21-.53,6-3.48,5.93-9.8-.05-5.71-2.52-8.8-7.05-8.79S279.05,52.53,279,58.39Z"/><path class="cls-1" d="M212.65,60.94a26.4,26.4,0,0,0-4,0c-1.5.22-3.79-1.11-4.36.83s1.15,3.7,2.77,4.91c2.73,2,6,1.62,9.11,1.59,1.91,0,3.12.19,3.09,2.61s-1.64,1.94-3,2c-12.84.61-19.51-7-16.47-18.75A12.14,12.14,0,0,1,223.33,54c1.3,4.85-.17,6.82-5.2,6.92C216.3,61,214.48,60.94,212.65,60.94Zm-1-4.22a9.33,9.33,0,0,0,2,0c1.78-.38,4.73,1.19,5.15-1,.53-2.79-1.92-4.76-4.57-5.69a7.45,7.45,0,0,0-7.08,1c-1.67,1.21-3.29,2.91-2.77,4.87s2.83.63,4.32.9A16.34,16.34,0,0,0,211.61,56.72Z"/><path class="cls-1" d="M251.22,63c0,2.33,0,4.66,0,7,0,1.66-.09,2.85-2.32,2.83-2.41,0-2.12-1.53-2.13-3,0-4,.09-8,0-12-.17-5.47-2.74-8.37-7.16-8.33s-6.66,2.81-6.69,8.53c0,4,0,8,0,12,0,1.73-.32,2.82-2.43,2.81s-2.39-1.2-2.37-2.88c0-4.65-.2-9.32.11-14,.44-6.7,5.47-11.26,11.74-11.1s10.66,4.64,11.13,11.16c.16,2.32,0,4.65,0,7Z"/><path class="cls-1" d="M192.08,54.78c0,2.33.11,4.67,0,7A11.44,11.44,0,0,1,169.2,62c-.25-4.82,0-9.65-.08-14.48,0-1.8.35-2.79,2.46-2.71,1.91.08,2.1,1.12,2.09,2.6,0,4-.08,8,0,12,.15,5.88,2.69,8.93,7.16,8.77,4.31-.15,6.54-3.1,6.58-8.76,0-4,.07-8,0-12-.05-1.94.68-2.59,2.61-2.62s2.12,1,2.09,2.47C192,49.79,192.08,52.29,192.08,54.78Z"/><path class="cls-1" d="M136.48,61c-.68-3.64,1.66-8.32-2.32-11.95-.4-.36.11-2,.9-3.26,3.13-5.05,5.52-10.55,12.92-9.87,1.48.14,1.28,1.25,1.29,2.21,0,1.2,0,2.33-1.7,2.42a11.66,11.66,0,0,0-3.86.74,3.72,3.72,0,0,0-2.4,3.52c.18,2.09,2.11,1,3.19,1,1.81,0,2.7.36,2.66,2.46,0,2.28-1.39,2.42-2.95,2.21-2.88-.38-3.2,1.15-3.15,3.49.13,5.33,0,10.66.05,16,0,1.56.11,2.94-2.23,2.89-2.16,0-2.42-1.2-2.4-2.87C136.5,67.14,136.48,64.31,136.48,61Z"/><path class="cls-1" d="M268,72.52c-4.51-.85-7.68-3.16-8.18-8-.32-3.12-.16-6.29-.45-9.41-.22-2.42,1.59-5.8-3.15-6.37-1.32-.17-1.23-3.46,0-3.51,4.59-.22,3-3.38,3.2-5.67.18-1.69-.63-3.75,2.47-3.72,3.33,0,2.11,2.39,2.1,3.85,0,3.1-.47,6.18,4.35,5.23,1.69-.33,1.69,1,1.73,2.21,0,1.5-.58,2.24-2,2-4-.7-4.24,1.57-4,4.61.19,2.64.09,5.3,0,8-.07,3.38.86,6,4.73,6.27,2.26.14,2.2,1.54,2.11,3.09C270.73,73.12,269.34,72.8,268,72.52Z"/><path class="cls-1" d="M156.12,54.36V38.88c0-1.48-.31-3,2.09-3.07s2.53,1.41,2.52,3.2c0,10.16,0,20.31,0,30.47,0,1.66.26,3.43-2.38,3.38s-2.18-2-2.2-3.51C156.09,64.36,156.12,59.36,156.12,54.36Z"/><path class="cls-2" d="M33.16,94.72A53.08,53.08,0,0,0,70.14,77m0,0A44,44,0,0,0,74,73.28c6.15-7.7,11.41-16.09,18.13-23.34,6.14-5.69,13.52-8.32,22.92-8.16-3.52-3.29-7-5-8.5-8.33-2-4.41-5.61-5.34-9.7-5.44-5.57-.14-17.38,3.86-18,4.65l0,0h0c-9.28,2.49-18.06,1.64-26.16-3.87-.65-.44-9.59-7-12.55-9a49.76,49.76,0,0,0-9-6.83h0a40,40,0,0,0-9-6c-2.7-2-5.55-3.66-9-4C5.35.12-1.22,5.53.33,13.92A48.16,48.16,0,0,0,11,37c1,1.9,6,8,6,8,2.78,4.51,6.41,8.46,8.55,13.42,5,11.62,1.52,22.25-9.5,28.42-4.19,2.34-8.83,3.33-14.61,4.79a53.62,53.62,0,0,0,20.76,3.47l11-.36"/></svg>