<svg id="Layer_1" data-name="Layer 1" xmlns="http://www.w3.org/2000/svg" viewBox="0 0 1007.71 165"><defs><style>.cls-1{fill:#fff;fill-rule:evenodd;}</style></defs><path class="cls-1" d="M217.78,32.41a96.13,96.13,0,0,1,13.05-.94,91.12,91.12,0,0,1,13,.94l28,58.05,28.81-58a67.27,67.27,0,0,1,11.69-.94,79.66,79.66,0,0,1,12.37.94L330.49,139a84.35,84.35,0,0,1-12.21.94,68,68,0,0,1-11.35-.94l-3.05-77.06L279.13,115.2c-1.58.21-3.22.39-4.91.55s-3.39.23-5.09.23c-1.47,0-2.93,0-4.4-.15a38.92,38.92,0,0,1-4.58-.63l-23-54.37L234.73,139a61.23,61.23,0,0,1-10.51.94A68.86,68.86,0,0,1,213,139Zm737.5,41.67H945.11L944.33,71l29.25-37.39h3.6V57.18h18.93a37.71,37.71,0,0,1,.63,4.22c.1,1.26.16,2.56.16,3.92s-.06,2.86-.16,4.22a42.24,42.24,0,0,1-.63,4.54H977.18v31.76a31.73,31.73,0,0,0,.79,7.82,11.61,11.61,0,0,0,2.26,4.69,7.53,7.53,0,0,0,3.68,2.35,18.77,18.77,0,0,0,5.16.63,27.27,27.27,0,0,0,4.62-.4l4-.7a30.42,30.42,0,0,1,1.56,6.18,38.92,38.92,0,0,1,.47,5.71c0,1.15,0,2.11-.08,2.89s-.13,1.54-.23,2.27A63.54,63.54,0,0,1,984.54,139q-14.24,0-21.75-6.64t-7.51-21.67V74.08Zm-54.11,28.78q-8.76-2.51-13.69-7.43t-4.93-14.78q0-11.9,8.53-18.62t23.23-6.73a66.25,66.25,0,0,1,12,1.1,76.77,76.77,0,0,1,12,3.28,42.45,42.45,0,0,1-1.57,8.45,40.12,40.12,0,0,1-3,7.67,60.12,60.12,0,0,0-8.29-2.74A38,38,0,0,0,916,71.89c-3.55,0-6.31.54-8.29,1.64a5.55,5.55,0,0,0-3,5.24q0,3.44,2.12,4.85a24.24,24.24,0,0,0,6,2.66l8.92,2.66a43.47,43.47,0,0,1,7.9,3,22,22,0,0,1,6,4.46,18.61,18.61,0,0,1,3.91,6.57,28.31,28.31,0,0,1,1.41,9.54,24.55,24.55,0,0,1-2.42,10.8,25,25,0,0,1-7,8.68,35,35,0,0,1-11.19,5.79,48.44,48.44,0,0,1-14.86,2.11c-2.51,0-4.8-.08-6.89-.23a56.47,56.47,0,0,1-6-.78q-2.89-.56-5.71-1.33c-1.88-.53-3.91-1.2-6.1-2a45.27,45.27,0,0,1,1.48-8.53,55.19,55.19,0,0,1,3.05-8.37,64.11,64.11,0,0,0,9.78,3,44.52,44.52,0,0,0,9.62,1,32.07,32.07,0,0,0,4.77-.39,17.36,17.36,0,0,0,4.78-1.41,11.23,11.23,0,0,0,3.67-2.66,6.16,6.16,0,0,0,1.49-4.3q0-3.75-2.27-5.4a21.86,21.86,0,0,0-6.33-2.89Zm-67.48,37.08a42.16,42.16,0,0,1-17.13-3.21,32.48,32.48,0,0,1-12-8.91,38.85,38.85,0,0,1-7.19-13.38,54.6,54.6,0,0,1-2.43-16.58,56.09,56.09,0,0,1,2.43-16.74,38.62,38.62,0,0,1,7.19-13.54,33.33,33.33,0,0,1,12-9,41.32,41.32,0,0,1,17.13-3.29,41.87,41.87,0,0,1,17.21,3.29,33.89,33.89,0,0,1,12.2,9,37.07,37.07,0,0,1,7.2,13.54,58.09,58.09,0,0,1,2.35,16.74,56.54,56.54,0,0,1-2.35,16.58,37.26,37.26,0,0,1-7.2,13.38,33,33,0,0,1-12.2,8.91A42.73,42.73,0,0,1,833.69,139.94Zm0-16.9q8.76,0,12.59-6.49t3.84-18.69q0-12.21-3.84-18.7t-12.59-6.49q-8.61,0-12.44,6.49t-3.83,18.7q0,12.19,3.83,18.69T833.69,123ZM671.11,57.18a41.54,41.54,0,0,1,4.38-.7,44.82,44.82,0,0,1,4.85-.24,40.42,40.42,0,0,1,4.69.24c1.36.15,2.77.39,4.23.7a9.09,9.09,0,0,1,.86,2.27c.26,1,.49,2,.7,3.13s.39,2.16.55,3.2.29,1.93.39,2.66a25.59,25.59,0,0,1,3.29-4.69,24,24,0,0,1,4.84-4.22,26.41,26.41,0,0,1,6.34-3.05,24.69,24.69,0,0,1,7.9-1.18q18.93,0,24.25,14.4a31.21,31.21,0,0,1,8.84-10.1q5.71-4.29,14.47-4.3,13.77,0,20.26,7.59t6.49,23.7v51.48a66.77,66.77,0,0,1-22.21,0V92.38q0-8.44-2.11-13t-8.53-4.54a18,18,0,0,0-5.24.78,11.12,11.12,0,0,0-4.69,2.9,15.41,15.41,0,0,0-3.45,5.94,31.13,31.13,0,0,0-1.33,9.94v43.65a66.77,66.77,0,0,1-22.21,0V92.38q0-8.44-2.12-13T708,74.86a18.83,18.83,0,0,0-5.32.78,10.58,10.58,0,0,0-4.77,3A16.07,16.07,0,0,0,694.58,85a36.89,36.89,0,0,0-1.26,10.64v42.4a66.77,66.77,0,0,1-22.21,0V57.18Zm-59.23,0c1.57-.31,3-.55,4.46-.7a41.14,41.14,0,0,1,4.62-.24,35.11,35.11,0,0,1,4.61.31c1.52.21,3,.47,4.46.79a8.58,8.58,0,0,1,.86,2.27c.26,1,.5,2,.71,3.13s.39,2.18.54,3.28.29,2,.4,2.74A40.28,40.28,0,0,1,641,60.08a20,20,0,0,1,12.52-3.84c1,0,2.24,0,3.6.16a13.26,13.26,0,0,1,3,.47,29.11,29.11,0,0,1,.47,3.6c.11,1.35.16,2.76.16,4.22q0,2.66-.24,5.79a41.61,41.61,0,0,1-.86,5.94,21.37,21.37,0,0,0-3.83-.31h-2.58a35.94,35.94,0,0,0-6,.55A13.71,13.71,0,0,0,641,79.55a17.19,17.19,0,0,0-4.92,7q-2,4.69-2,13.15v38.48a53.86,53.86,0,0,1-5.63.63c-1.88.1-3.7.15-5.48.15s-3.57-.05-5.39-.15-3.73-.32-5.71-.63v-81Zm-61.2,47.25q.62,9.39,6.57,13.61t15.64,4.22a60.23,60.23,0,0,0,10.88-1,61.16,61.16,0,0,0,10.56-2.89,37.18,37.18,0,0,1,3,7.51,38.93,38.93,0,0,1,1.41,9.39,76.26,76.26,0,0,1-27.54,4.69q-11.26,0-19.32-3.13a34.25,34.25,0,0,1-13.14-8.68,34.88,34.88,0,0,1-7.51-13.22,55.15,55.15,0,0,1-2.42-16.74,54.53,54.53,0,0,1,2.5-16.74,39,39,0,0,1,7.43-13.61,35.14,35.14,0,0,1,12.2-9.15,40,40,0,0,1,17-3.37,36,36,0,0,1,15,3,33.1,33.1,0,0,1,11.18,8.13,34.35,34.35,0,0,1,7,12.28A48.58,48.58,0,0,1,603.4,94q0,3-.23,5.86c-.16,1.93-.34,3.47-.55,4.62Zm31.76-15.49q-.32-7.51-4.15-12.13T567.57,72.2q-7.82,0-11.89,4.38t-4.84,12.36ZM479.67,74.08H469.5L468.72,71,498,33.56h3.6V57.18H520.5a40.19,40.19,0,0,1,.63,4.22c.1,1.26.15,2.56.15,3.92s0,2.86-.15,4.22a44.93,44.93,0,0,1-.63,4.54H501.57v31.76a31.8,31.8,0,0,0,.78,7.82,11.74,11.74,0,0,0,2.27,4.69,7.48,7.48,0,0,0,3.68,2.35,18.77,18.77,0,0,0,5.16.63,27.27,27.27,0,0,0,4.62-.4l4-.7a30.42,30.42,0,0,1,1.56,6.18,38.92,38.92,0,0,1,.47,5.71c0,1.15,0,2.11-.08,2.89s-.13,1.54-.23,2.27A63.54,63.54,0,0,1,508.93,139q-14.24,0-21.75-6.64t-7.51-21.67V74.08Zm-58.7,0H410.8L410,71l29.26-37.39h3.59V57.18H461.8a40.19,40.19,0,0,1,.63,4.22c.1,1.26.16,2.56.16,3.92s-.06,2.86-.16,4.22a44.93,44.93,0,0,1-.63,4.54H442.87v31.76a31.73,31.73,0,0,0,.79,7.82,11.61,11.61,0,0,0,2.26,4.69,7.53,7.53,0,0,0,3.68,2.35,18.77,18.77,0,0,0,5.16.63,27.18,27.18,0,0,0,4.62-.4l4-.7a30.42,30.42,0,0,1,1.56,6.18,38.92,38.92,0,0,1,.47,5.71c0,1.15,0,2.11-.08,2.89s-.12,1.54-.23,2.27A63.54,63.54,0,0,1,450.23,139q-14.24,0-21.75-6.64T421,110.69V74.08ZM384.57,101c-1.25-.21-2.6-.4-4.07-.55a36.24,36.24,0,0,0-3.91-.24q-7.66,0-12.12,2.74T360,111.78a9.93,9.93,0,0,0,1.72,6.26,10.24,10.24,0,0,0,4.14,3.2A17.11,17.11,0,0,0,371,122.5c1.82.15,3.41.23,4.77.23a28.54,28.54,0,0,0,4.69-.39c1.57-.26,2.92-.49,4.07-.7V101Zm0-16.12a12.89,12.89,0,0,0-1.25-6.1,9.29,9.29,0,0,0-3.44-3.67,14.2,14.2,0,0,0-5.4-1.8,48.41,48.41,0,0,0-7.12-.47,55.35,55.35,0,0,0-18,3.28,42.45,42.45,0,0,1-3.28-7.66,29.79,29.79,0,0,1-1.1-8.61,83.53,83.53,0,0,1,13.77-3.44,82,82,0,0,1,12.83-1.1q16.26,0,25.42,7.83t9.15,25v46.93a131.19,131.19,0,0,1-13.3,3.29,90.76,90.76,0,0,1-17.68,1.56,70.57,70.57,0,0,1-14.62-1.41,31.15,31.15,0,0,1-11.42-4.69,22.06,22.06,0,0,1-7.36-8.45,28.13,28.13,0,0,1-2.58-12.67,23.13,23.13,0,0,1,3.21-12.59A24.72,24.72,0,0,1,350.7,92,36.88,36.88,0,0,1,362,87.61a59.94,59.94,0,0,1,12.52-1.33q4.53,0,10,.47Z"/><path class="cls-1" d="M130.12,15.68,131,33.11c14.13,15.62,19.71,37.73,12.67,58.52-10.5,31-45.13,47.33-77.35,36.42S16.49,83.15,27,52.13c7.06-20.85,25-35.06,45.82-38.82L84.05,0a82.12,82.12,0,1,0,46.07,15.65Z"/><path class="cls-1" d="M110,67.12l-.59-24.37-.48-14-.32-12.15s.07-5.86-.14-7.24a2.09,2.09,0,0,0-.24-.73l0-.09,0-.07a1.88,1.88,0,0,0-2.41-.8h0l-.15.08a2.14,2.14,0,0,0-.6.41c-1,1-4.5,5.67-4.5,5.67L92.8,23.27,83.9,34.12l-15.27,19s-7,8.75-5.47,19.52,9.56,16,15.77,18.12,15.76,2.8,23.53-4.81S110,67.12,110,67.12Z"/></svg>